<svg width="133" height="53" viewBox="0 0 133 53" fill="none" xmlns="http://www.w3.org/2000/svg">
<mask id="mask0_351_1571" style="mask-type:luminance" maskUnits="userSpaceOnUse" x="0" y="0" width="133" height="53">
<path d="M0 0H133V52.6298H0V0Z" fill="white"/>
</mask>
<g mask="url(#mask0_351_1571)">
<path d="M1.99841 45.6889H0V0.0517578H1.99841V45.6889ZM68.2871 0.0517578H66.285V45.6889H68.2871V0.0517578ZM86.6065 0.0517578H83.6329V45.6889H86.6065V0.0517578ZM97.2325 0.0517578H92.8167V45.6889H97.2325V0.0517578ZM71.6165 0.0517578H70.6192V45.6889H71.6165V0.0517578ZM9.62871 0.0517578H3.49629V45.6889H9.62871V0.0517578ZM13.7368 0.0517578H13.2399V45.6889H13.7368V0.0517578ZM111.422 0.0517578H110.925V45.6889H111.422V0.0517578ZM114.21 0.0517578H112.749V45.6889H114.21V0.0517578ZM53.4603 0.0517578H52.9634V45.6889H53.4603V0.0517578ZM91.2707 0.0517578H90.7701V45.6889H91.2707V0.0517578ZM129.415 0.0517578H128.914V45.6889H129.415V0.0517578ZM46.8014 0.0517578H46.3008V45.6889H46.8014V0.0517578ZM48.7145 0.0517578H48.2177V45.6889H48.7145V0.0517578ZM50.0493 0.0517578H49.7971V45.6889H50.0493V0.0517578ZM116.52 0.0517578H116.023V45.6889H116.52V0.0517578ZM118.436 0.0517578H117.936V45.6889H118.436V0.0517578ZM132.878 0.0517578H130.909V45.6889H132.878V0.0517578ZM119.767 0.0517578H119.519V45.6889H119.767V0.0517578ZM74.2193 0.0517578H73.9709V45.6889H74.2193V0.0517578ZM77.0259 0.0517578H76.0249V45.6889H77.0259V0.0517578ZM19.3019 0.0517578H16.2394V45.6889H19.3019V0.0517578ZM22.4015 0.0517578H20.1139V45.6889H22.4015V0.0517578ZM80.196 0.0517578H77.9047V45.6889H80.196V0.0517578ZM30.3692 0.0517578H23.3618V45.6889H30.3692V0.0517578ZM41.8294 0.0517578H31.107V45.6889H41.8294V0.0517578ZM109.115 0.0517578H98.3967V45.6889H109.115V0.0517578ZM57.1271 0.0517578H54.4243V45.6889H57.1271V0.0517578ZM65.1208 0.0517578H60.1637V45.6889H65.1208V0.0517578ZM45.5519 0.0517578H42.6006V45.6889H45.5519V0.0517578ZM126.352 0.0517578H121.462V45.6889H126.352V0.0517578ZM3.44068 50.9241C3.44068 51.5433 3.34428 52.0179 3.15148 52.3515C2.95869 52.6889 2.625 52.8558 2.14672 52.8558C1.66843 52.8558 1.33475 52.6889 1.14195 52.3515C0.949152 52.0179 0.852754 51.5433 0.852754 50.9241C0.852754 50.3049 0.949152 49.8267 1.14195 49.4893C1.33475 49.1556 1.66843 48.9887 2.14672 48.9887C2.625 48.9887 2.95869 49.1556 3.15148 49.4893C3.34428 49.8267 3.44068 50.3049 3.44068 50.9241ZM2.68061 50.9241C2.68061 50.4718 2.64354 50.1381 2.5768 49.9193C2.51006 49.7043 2.36547 49.5931 2.14672 49.5931C1.92797 49.5931 1.78337 49.7043 1.71292 49.9193C1.64248 50.1381 1.6054 50.4718 1.6054 50.9241C1.6054 51.3542 1.64248 51.6842 1.71292 51.914C1.78337 52.1402 1.92797 52.2551 2.14672 52.2551C2.36547 52.2551 2.51006 52.1402 2.5768 51.914C2.64354 51.6842 2.68061 51.3542 2.68061 50.9241ZM29.5683 51.6249L29.8612 51.4135C30.1096 51.2393 30.2913 51.0798 30.3988 50.9352C30.5657 50.7202 30.6472 50.4755 30.6472 50.1974C30.6472 49.8341 30.5286 49.5449 30.295 49.3261C30.0614 49.1037 29.7463 48.9961 29.3496 48.9961C28.8453 48.9961 28.4968 49.1815 28.3003 49.556C28.1965 49.7525 28.1372 50.012 28.1261 50.3272H28.8416C28.8528 50.1196 28.8787 49.9638 28.9269 49.8674C29.0048 49.7006 29.1605 49.619 29.3829 49.619C29.5461 49.619 29.6721 49.6709 29.7611 49.7747C29.8501 49.8823 29.8909 50.012 29.8909 50.1715C29.8909 50.368 29.8167 50.5459 29.661 50.7091C29.5609 50.8129 29.3422 50.9871 29.0011 51.2318C28.6118 51.5099 28.3633 51.7732 28.2595 52.0253C28.1483 52.2477 28.0927 52.4924 28.0853 52.7631H30.6547V52.1143H29.0159C29.0641 52.0364 29.1197 51.966 29.1864 51.9103C29.2569 51.851 29.3829 51.7546 29.5683 51.6249ZM33.3686 51.3801V51.9548H32.946V52.7631H32.223V51.9548H30.7399V51.3097L32.1155 49.0369H32.946V51.3801H33.3686ZM32.223 49.7636L31.2887 51.3801H32.223V49.7636ZM34.6811 52.2589C34.5254 52.2589 34.4031 52.2181 34.3215 52.1291C34.2399 52.0438 34.1843 51.9178 34.1547 51.7583H33.4205C33.4465 52.1106 33.5726 52.3812 33.8024 52.574C34.0286 52.7631 34.3252 52.8595 34.6811 52.8595C35.1223 52.8595 35.456 52.726 35.6785 52.4517C35.901 52.1773 36.0085 51.8696 36.0085 51.5247C36.0085 51.1243 35.8935 50.8203 35.6637 50.6127C35.4338 50.405 35.1631 50.3012 34.8517 50.3012C34.6997 50.3012 34.5699 50.3198 34.4624 50.3606C34.3994 50.3828 34.3104 50.4347 34.1954 50.5089L34.3326 49.6858H35.8639V49.0629H33.7987L33.5355 51.1317L34.1954 51.1651C34.2548 51.0502 34.3437 50.976 34.4587 50.9352C34.5217 50.913 34.5996 50.9019 34.6886 50.9019C34.8776 50.9019 35.0185 50.9649 35.1075 51.0984C35.1965 51.2281 35.241 51.3913 35.241 51.5841C35.241 51.7769 35.1928 51.94 35.1001 52.0661C35.0037 52.1958 34.8665 52.2589 34.6811 52.2589ZM38.715 51.5359C38.715 51.8844 38.6112 52.1921 38.4036 52.4591C38.196 52.726 37.8697 52.8595 37.4322 52.8595C36.9576 52.8595 36.6091 52.663 36.3867 52.27C36.2124 51.9585 36.1234 51.5618 36.1234 51.0724C36.1234 50.7869 36.1382 50.5533 36.1605 50.3754C36.205 50.0565 36.2865 49.7896 36.4126 49.5782C36.5201 49.3966 36.661 49.252 36.8316 49.1407C37.0058 49.0332 37.2135 48.9776 37.4544 48.9776C37.803 48.9776 38.081 49.0666 38.285 49.2446C38.4926 49.4225 38.6112 49.6598 38.6335 49.9564H37.8994C37.8994 49.8971 37.8771 49.8304 37.8326 49.7562C37.7511 49.6413 37.6324 49.582 37.473 49.582C37.232 49.582 37.0614 49.7154 36.9613 49.9861C36.9057 50.1344 36.8686 50.3531 36.8464 50.6423C36.9391 50.5348 37.0429 50.4532 37.1653 50.405C37.2839 50.3531 37.4248 50.3272 37.5768 50.3272C37.9105 50.3272 38.1848 50.4421 38.3962 50.6683C38.6112 50.8945 38.715 51.1836 38.715 51.5359ZM37.9698 51.5952C37.9698 51.3764 37.9142 51.2096 37.8067 51.0947C37.7029 50.976 37.5694 50.9167 37.4137 50.9167C37.2876 50.9167 37.1801 50.9575 37.08 51.0316C36.9354 51.1429 36.8649 51.3245 36.8649 51.5767C36.8649 51.7769 36.9168 51.94 37.0281 52.0698C37.1356 52.1958 37.2728 52.2589 37.4433 52.2589C37.6065 52.2589 37.7325 52.1995 37.8289 52.0772C37.9216 51.9511 37.9698 51.7917 37.9698 51.5952ZM40.0646 52.2551C39.8273 52.2551 39.6642 52.1662 39.5752 51.9845C39.527 51.8844 39.5048 51.762 39.5048 51.61H38.7781C38.7929 51.9103 38.8522 52.1513 38.9597 52.3367C39.1674 52.6815 39.5344 52.8558 40.0646 52.8558C40.4947 52.8558 40.821 52.7334 41.0397 52.4961C41.2585 52.2551 41.3697 51.9734 41.3697 51.6582C41.3697 51.3579 41.277 51.1169 41.0879 50.9464C40.9619 50.8277 40.8655 50.7721 40.7987 50.7721C40.8877 50.735 40.973 50.672 41.0583 50.5756C41.188 50.4236 41.2548 50.2382 41.2548 50.0195C41.2548 49.708 41.1435 49.4596 40.9248 49.2742C40.706 49.0888 40.4168 48.9961 40.0572 48.9961C39.8644 48.9961 39.7013 49.0184 39.5715 49.0629C39.438 49.1111 39.3231 49.1778 39.2267 49.2668C39.0969 49.3892 39.0042 49.5263 38.9412 49.6709C38.8856 49.8378 38.8522 50.0157 38.8448 50.2011H39.5344C39.5307 50.0157 39.5715 49.8711 39.6531 49.7599C39.7346 49.6487 39.8607 49.5931 40.035 49.5931C40.187 49.5931 40.3019 49.6376 40.3872 49.7303C40.4687 49.8192 40.5132 49.9342 40.5132 50.0788C40.5132 50.2975 40.4317 50.4458 40.2685 50.5163C40.1721 50.5608 40.0053 50.583 39.768 50.5867V51.1132C40.009 51.1132 40.1907 51.1392 40.3019 51.1836C40.5021 51.2689 40.6022 51.4321 40.6022 51.6805C40.6022 51.8658 40.5503 52.0067 40.4391 52.1068C40.3353 52.207 40.2055 52.2551 40.0646 52.2551ZM57.8946 51.7213C57.8946 52.0364 57.7797 52.3071 57.5461 52.5295C57.3125 52.7483 56.9862 52.8595 56.5636 52.8595C56.1446 52.8595 55.8294 52.7483 55.6144 52.5295C55.3957 52.3071 55.2881 52.0364 55.2881 51.7213C55.2881 51.5136 55.3363 51.3208 55.4327 51.1503C55.5254 50.9797 55.6663 50.8537 55.848 50.7647C55.6663 50.646 55.5477 50.5163 55.4958 50.3754C55.4401 50.2345 55.4142 50.101 55.4142 49.9787C55.4142 49.708 55.518 49.4744 55.7219 49.2816C55.9258 49.0925 56.2187 48.9961 56.5932 48.9961C56.9677 48.9961 57.2569 49.0925 57.4645 49.2816C57.6684 49.4744 57.7722 49.708 57.7722 49.9787C57.7722 50.101 57.7426 50.2345 57.6907 50.3754C57.6351 50.5163 57.5164 50.6349 57.3384 50.7387C57.5238 50.8425 57.661 50.9797 57.7537 51.1503C57.8501 51.3208 57.8946 51.5136 57.8946 51.7213ZM56.1186 50.0639C56.1186 50.1974 56.1594 50.3086 56.2447 50.3976C56.33 50.4829 56.4449 50.5237 56.5932 50.5237C56.7452 50.5237 56.8602 50.4829 56.9417 50.3976C57.0233 50.3086 57.0678 50.1974 57.0678 50.0639C57.0678 49.9156 57.0233 49.797 56.9417 49.7154C56.8602 49.6301 56.7452 49.5894 56.5932 49.5894C56.4449 49.5894 56.33 49.6301 56.2447 49.7154C56.1594 49.797 56.1186 49.9156 56.1186 50.0639ZM57.1345 51.6731C57.1345 51.484 57.0863 51.3357 56.9899 51.2393C56.8898 51.1392 56.7601 51.091 56.5932 51.091C56.4301 51.091 56.2966 51.1392 56.2002 51.2393C56.1038 51.3357 56.0556 51.484 56.0556 51.6731C56.0556 51.8584 56.1038 51.9993 56.1965 52.1031C56.2929 52.2032 56.4264 52.2551 56.5932 52.2551C56.7638 52.2551 56.8972 52.2032 56.9936 52.1031C57.0863 51.9993 57.1345 51.8584 57.1345 51.6731ZM60.5975 51.3801V51.9548H60.1748V52.7631H59.4518V51.9548H57.9687V51.3097L59.348 49.0369H60.1748V51.3801H60.5975ZM59.4518 49.7636L58.5175 51.3801H59.4518V49.7636ZM63.2781 50.8685C63.2781 51.3245 63.2225 51.7027 63.1038 52.003C62.8851 52.5814 62.4809 52.8706 61.8914 52.8706C61.6096 52.8706 61.3575 52.7853 61.1314 52.6222C60.9089 52.4554 60.7791 52.2107 60.7495 51.8918H61.4836C61.4984 52.003 61.5466 52.092 61.6208 52.1625C61.6986 52.2292 61.7987 52.2663 61.9248 52.2663C62.1658 52.2663 62.3363 52.1328 62.4364 51.8621C62.4883 51.7138 62.5217 51.4988 62.5365 51.2133C62.4698 51.2986 62.3994 51.3616 62.3215 51.4061C62.1843 51.4914 62.0138 51.5322 61.8136 51.5322C61.5132 51.5322 61.25 51.4283 61.0201 51.2207C60.7865 51.0168 60.6716 50.7202 60.6716 50.3309C60.6716 49.9305 60.7865 49.6042 61.0201 49.3558C61.2537 49.1074 61.554 48.9813 61.9248 48.9813C62.4958 48.9813 62.8851 49.2334 63.0964 49.7377C63.2187 50.0269 63.2781 50.4013 63.2781 50.8685ZM62.5106 50.2864C62.5106 50.0751 62.4624 49.9082 62.3623 49.7822C62.2622 49.6598 62.1287 49.5968 61.9544 49.5968C61.8284 49.5968 61.7209 49.6339 61.6319 49.7043C61.491 49.8155 61.4205 50.0009 61.4205 50.2642C61.4205 50.4866 61.465 50.6535 61.554 50.7647C61.6467 50.8759 61.7839 50.9315 61.973 50.9315C62.0768 50.9315 62.1695 50.9019 62.2585 50.8425C62.429 50.735 62.5106 50.5533 62.5106 50.2864ZM63.5747 49.556C63.4709 49.7525 63.4152 50.012 63.4004 50.3272H64.1197C64.1271 50.1196 64.1531 49.9638 64.2013 49.8674C64.2828 49.7006 64.4348 49.619 64.6573 49.619C64.8242 49.619 64.9465 49.6709 65.0355 49.7747C65.1245 49.8823 65.169 50.012 65.169 50.1715C65.169 50.368 65.0911 50.5459 64.9391 50.7091C64.839 50.8129 64.6165 50.9871 64.2791 51.2318C63.8861 51.5099 63.6377 51.7732 63.5339 52.0253C63.4264 52.2477 63.3671 52.4924 63.3596 52.7631H65.929V52.1143H64.2903C64.3384 52.0364 64.3941 51.966 64.4645 51.9103C64.5312 51.851 64.6573 51.7546 64.8427 51.6249L65.1393 51.4135C65.3877 51.2393 65.5657 51.0798 65.6732 50.9352C65.84 50.7202 65.9216 50.4755 65.9216 50.1974C65.9216 49.8341 65.8067 49.5449 65.5694 49.3261C65.3358 49.1037 65.0207 48.9961 64.6239 48.9961C64.1197 48.9961 63.7712 49.1815 63.5747 49.556ZM68.6319 51.5359C68.6319 51.8844 68.5281 52.1921 68.3204 52.4591C68.1091 52.726 67.7865 52.8595 67.3453 52.8595C66.8745 52.8595 66.5259 52.663 66.3035 52.27C66.1292 51.9585 66.0403 51.5618 66.0403 51.0724C66.0403 50.7869 66.0514 50.5533 66.0773 50.3754C66.1181 50.0565 66.2034 49.7896 66.3257 49.5782C66.4333 49.3966 66.5742 49.252 66.7484 49.1407C66.9227 49.0332 67.1266 48.9776 67.3713 48.9776C67.7161 48.9776 67.9942 49.0666 68.2018 49.2446C68.4094 49.4225 68.5244 49.6598 68.5503 49.9564H67.8162C67.8162 49.8971 67.794 49.8304 67.7458 49.7562C67.6679 49.6413 67.5493 49.582 67.3861 49.582C67.1488 49.582 66.9783 49.7154 66.8745 49.9861C66.8189 50.1344 66.7818 50.3531 66.7632 50.6423C66.8522 50.5348 66.9597 50.4532 67.0784 50.405C67.2007 50.3531 67.3379 50.3272 67.4936 50.3272C67.8273 50.3272 68.098 50.4421 68.313 50.6683C68.5244 50.8945 68.6319 51.1836 68.6319 51.5359ZM67.8829 51.5952C67.8829 51.3764 67.831 51.2096 67.7235 51.0947C67.616 50.976 67.4862 50.9167 67.3305 50.9167C67.2044 50.9167 67.0932 50.9575 66.9968 51.0316C66.8522 51.1429 66.7818 51.3245 66.7818 51.5767C66.7818 51.7769 66.8337 51.94 66.9449 52.0698C67.0524 52.1958 67.1896 52.2589 67.3565 52.2589C67.5196 52.2589 67.6494 52.1995 67.7421 52.0772C67.8384 51.9511 67.8829 51.7917 67.8829 51.5952ZM111.021 52.2589C110.862 52.2589 110.739 52.2181 110.658 52.1291C110.576 52.0438 110.521 51.9178 110.491 51.7583H109.757C109.783 52.1106 109.909 52.3812 110.139 52.574C110.369 52.7631 110.662 52.8595 111.017 52.8595C111.459 52.8595 111.792 52.726 112.015 52.4517C112.237 52.1773 112.349 51.8696 112.349 51.5247C112.349 51.1243 112.234 50.8203 112 50.6127C111.77 50.405 111.499 50.3012 111.192 50.3012C111.036 50.3012 110.906 50.3198 110.799 50.3606C110.736 50.3828 110.647 50.4347 110.535 50.5089L110.669 49.6858H112.2V49.0629H110.135L109.876 51.1317L110.535 51.1651C110.591 51.0502 110.68 50.976 110.795 50.9352C110.862 50.913 110.936 50.9019 111.029 50.9019C111.218 50.9019 111.355 50.9649 111.444 51.0984C111.533 51.2281 111.577 51.3913 111.577 51.5841C111.577 51.7769 111.533 51.94 111.436 52.0661C111.34 52.1958 111.203 52.2589 111.021 52.2589ZM115.066 51.3801V51.9548H114.64V52.7631H113.921V51.9548H112.437V51.3097L113.813 49.0369H114.64V51.3801H115.066ZM113.921 49.7636L112.986 51.3801H113.921V49.7636ZM130.575 51.2318C130.182 51.5099 129.934 51.7732 129.83 52.0253C129.722 52.2477 129.663 52.4924 129.656 52.7631H132.225V52.1143H130.586C130.635 52.0364 130.69 51.966 130.761 51.9103C130.827 51.851 130.953 51.7546 131.139 51.6249L131.435 51.4135C131.684 51.2393 131.862 51.0798 131.969 50.9352C132.136 50.7202 132.218 50.4755 132.218 50.1974C132.218 49.8341 132.103 49.5449 131.865 49.3261C131.632 49.1037 131.317 48.9961 130.92 48.9961C130.416 48.9961 130.067 49.1815 129.871 49.556C129.767 49.7525 129.711 50.012 129.696 50.3272H130.416C130.423 50.1196 130.449 49.9638 130.497 49.8674C130.579 49.7006 130.731 49.619 130.953 49.619C131.117 49.619 131.243 49.6709 131.332 49.7747C131.421 49.8823 131.465 50.012 131.465 50.1715C131.465 50.368 131.387 50.5459 131.235 50.7091C131.135 50.8129 130.913 50.9871 130.575 51.2318Z" fill="#131313"/>
</g>
</svg>
