<svg width="17" height="17" viewBox="0 0 17 17" fill="none" xmlns="http://www.w3.org/2000/svg">
<path d="M8.156 16.394C3.662 16.394 0.0290001 13.16 0.0290001 8.267C0.0290001 3.416 3.662 0.181999 8.156 0.181999C12.608 0.181999 16.241 3.416 16.241 8.267C16.241 13.16 12.608 16.394 8.156 16.394ZM2.003 8.267C2.003 12.068 4.733 14.399 8.156 14.399C11.537 14.399 14.267 12.068 14.267 8.267C14.267 4.508 11.537 2.177 8.156 2.177C4.733 2.177 2.003 4.508 2.003 8.267ZM4.292 8.267C4.292 5.642 5.93 4.34 8.24 4.34C10.655 4.34 11.831 5.705 11.894 7.385H9.71C9.605 6.503 9.08 6.125 8.261 6.125C7.19 6.125 6.581 6.671 6.581 8.267C6.581 9.926 7.232 10.43 8.24 10.43C9.101 10.43 9.584 10.01 9.773 9.065H11.978C11.768 10.871 10.508 12.215 8.198 12.215C5.909 12.215 4.292 10.913 4.292 8.267Z" fill="#131313"/>
</svg>
