<svg width="17" height="135" viewBox="0 0 17 135" fill="none" xmlns="http://www.w3.org/2000/svg">
<path d="M1 0.0413352L16.75 0.0413359L16.75 6.84534C16.75 11.2343 13.915 13.5233 8.875 13.5233C3.814 13.5233 0.999999 11.2343 1 6.84534L1 0.0413352ZM3.583 3.00234L3.583 6.21534C3.583 9.30234 4.99 10.4153 8.896 10.4153C12.781 10.4153 14.167 9.30234 14.167 6.25734L14.167 3.00234L3.583 3.00234ZM0.999999 16.4066L16.75 16.4066L16.75 27.9356L14.167 27.9356L14.167 19.3676L10.156 19.3676L10.156 27.1376L7.699 27.1376L7.699 19.3676L3.583 19.3676L3.583 28.1456L0.999999 28.1456L0.999999 16.4066ZM0.999998 35.7756L16.75 30.1476L16.75 33.3816L4.822 37.4766L4.822 37.6656L16.75 41.8026L16.75 44.9526L0.999998 39.2826L0.999998 35.7756ZM0.999998 47.5579L16.75 47.5579L16.75 59.0869L14.167 59.0869L14.167 50.5189L10.156 50.5189L10.156 58.2889L7.699 58.2889L7.699 50.5189L3.583 50.5189L3.583 59.2969L0.999997 59.2969L0.999998 47.5579ZM0.999997 62.139L16.75 62.139L16.75 65.163L3.583 65.163L3.583 72.891L0.999997 72.891L0.999997 62.139ZM3.394 81.5148C3.394 84.4968 5.032 85.7778 8.875 85.7778C12.718 85.7778 14.356 84.4968 14.356 81.5148C14.356 78.5328 12.697 77.2308 8.875 77.2308C5.053 77.2308 3.394 78.5328 3.394 81.5148ZM8.896 74.1228C14.23 74.1228 16.96 76.6848 16.96 81.5148C16.96 86.3448 14.251 88.8858 8.875 88.8858C3.562 88.8858 0.789996 86.3448 0.789996 81.5358C0.789997 76.7058 3.562 74.1228 8.896 74.1228ZM0.999996 91.7933L16.75 91.7933L16.75 99.1853C16.75 102.419 15.007 104.225 11.773 104.225C8.539 104.225 6.796 102.419 6.796 99.1853L6.796 94.7333L0.999996 94.7333L0.999996 91.7933ZM9.169 94.7333L9.169 98.0933C9.169 100.361 9.799 101.117 11.773 101.117C13.747 101.117 14.398 100.361 14.398 98.0933L14.398 94.7333L9.169 94.7333ZM0.999995 106.969L16.75 106.969L16.75 118.498L14.167 118.498L14.167 109.93L10.156 109.93L10.156 117.7L7.69899 117.7L7.699 109.93L3.583 109.93L3.58299 118.708L0.999995 118.708L0.999995 106.969ZM0.999995 121.55L16.75 121.55L16.75 129.572C16.75 132.617 15.217 134.255 12.361 134.255C10.261 134.255 8.97999 133.373 8.68599 131.693L8.49699 131.693C8.11899 133.478 7.02699 134.192 4.73799 134.192C3.35199 134.192 1.90299 134.276 0.999994 134.423L0.999994 131.441C1.69299 131.294 2.95299 131.231 4.71699 131.231C6.54399 131.231 7.13199 130.559 7.13199 128.522L7.132 124.511L0.999994 124.511L0.999995 121.55ZM9.505 124.511L9.50499 128.501C9.50499 130.538 10.072 131.21 11.941 131.21C13.81 131.21 14.398 130.559 14.398 128.669L14.398 124.511L9.505 124.511Z" fill="#131313"/>
</svg>
