<svg width="17" height="135" viewBox="0 0 17 135" fill="none" xmlns="http://www.w3.org/2000/svg">
<path d="M16 134.959L0.249999 134.959L0.249998 128.155C0.249998 123.766 3.085 121.477 8.125 121.477C13.186 121.477 16 123.766 16 128.155L16 134.959ZM13.417 131.998L13.417 128.785C13.417 125.698 12.01 124.585 8.104 124.585C4.219 124.585 2.833 125.698 2.833 128.743L2.833 131.998L13.417 131.998ZM16 118.593L0.249998 118.593L0.249997 107.064L2.833 107.064L2.833 115.632L6.844 115.632L6.844 107.862L9.301 107.862L9.301 115.632L13.417 115.632L13.417 106.854L16 106.854L16 118.593ZM16 99.2244L0.249997 104.852L0.249997 101.618L12.178 97.5234L12.178 97.3344L0.249997 93.1974L0.249997 90.0474L16 95.7174L16 99.2244ZM16 87.4421L0.249997 87.4421L0.249996 75.9131L2.833 75.9131L2.833 84.4811L6.844 84.4811L6.844 76.7111L9.301 76.7111L9.301 84.4811L13.417 84.4811L13.417 75.7031L16 75.7031L16 87.4421ZM16 72.861L0.249996 72.861L0.249996 69.837L13.417 69.837L13.417 62.109L16 62.109L16 72.861ZM13.606 53.4852C13.606 50.5032 11.968 49.2222 8.125 49.2222C4.282 49.2222 2.644 50.5032 2.644 53.4852C2.644 56.4672 4.303 57.7692 8.125 57.7692C11.947 57.7692 13.606 56.4672 13.606 53.4852ZM8.104 60.8772C2.77 60.8772 0.0399955 58.3152 0.0399953 53.4852C0.0399951 48.6552 2.749 46.1142 8.125 46.1142C13.438 46.1142 16.21 48.6552 16.21 53.4642C16.21 58.2942 13.438 60.8772 8.104 60.8772ZM16 43.2067L0.249995 43.2067L0.249994 35.8147C0.249994 32.5807 1.99299 30.7747 5.227 30.7747C8.46099 30.7747 10.204 32.5807 10.204 35.8147L10.204 40.2667L16 40.2667L16 43.2067ZM7.831 40.2667L7.831 36.9067C7.83099 34.6387 7.20099 33.8827 5.227 33.8827C3.25299 33.8827 2.602 34.6387 2.602 36.9067L2.602 40.2667L7.831 40.2667ZM16 28.0309L0.249994 28.0309L0.249993 16.5019L2.83299 16.5019L2.83299 25.0699L6.84399 25.0699L6.84399 17.2999L9.30099 17.2999L9.30099 25.0699L13.417 25.0699L13.417 16.2919L16 16.2919L16 28.0309ZM16 13.4499L0.249993 13.4499L0.249993 5.42787C0.249993 2.38287 1.78299 0.744874 4.63899 0.744874C6.73899 0.744874 8.01999 1.62687 8.31399 3.30687L8.50299 3.30687C8.88099 1.52187 9.97299 0.807874 12.262 0.807874C13.648 0.807874 15.097 0.723874 16 0.576873L16 3.55887C15.307 3.70587 14.047 3.76887 12.283 3.76887C10.456 3.76887 9.86799 4.44087 9.86799 6.47787L9.86799 10.4889L16 10.4889L16 13.4499ZM7.49499 10.4889L7.49499 6.49887C7.49499 4.46187 6.92799 3.78987 5.05899 3.78987C3.18999 3.78987 2.60199 4.44087 2.60199 6.33087L2.60199 10.4889L7.49499 10.4889Z" fill="#131313"/>
</svg>
