<svg width="116" height="78" viewBox="0 0 116 78" fill="none" xmlns="http://www.w3.org/2000/svg">
<path d="M57.7863 76C88.5963 76 113.573 59.4345 113.573 39C113.573 18.5655 88.5963 2 57.7863 2C26.9764 2 2 18.5655 2 39C2 59.4345 26.9764 76 57.7863 76Z" stroke="#09040A" stroke-width="3" stroke-miterlimit="10" stroke-linecap="round" stroke-linejoin="round"/>
<path d="M57.7871 76C78.2216 76 94.7871 59.4345 94.7871 39C94.7871 18.5655 78.2216 2 57.7871 2C37.3526 2 20.7871 18.5655 20.7871 39C20.7871 59.4345 37.3526 76 57.7871 76Z" stroke="#09040A" stroke-width="3" stroke-miterlimit="10" stroke-linecap="round" stroke-linejoin="round"/>
<path d="M57.7863 76C65.0162 76 70.8772 59.4345 70.8772 39C70.8772 18.5655 65.0162 2 57.7863 2C50.5563 2 44.6953 18.5655 44.6953 39C44.6953 59.4345 50.5563 76 57.7863 76Z" stroke="#09040A" stroke-width="3" stroke-miterlimit="10" stroke-linecap="round" stroke-linejoin="round"/>
<path d="M57.7863 50.9545C88.5963 50.9545 113.573 45.6022 113.573 38.9999C113.573 32.3976 88.5963 27.0454 57.7863 27.0454C26.9764 27.0454 2 32.3976 2 38.9999C2 45.6022 26.9764 50.9545 57.7863 50.9545Z" stroke="#09040A" stroke-width="3" stroke-miterlimit="10" stroke-linecap="round" stroke-linejoin="round"/>
</svg>
